<svg clip-rule="evenodd" fill-rule="evenodd" stroke-linejoin="round" stroke-miterlimit="2" viewBox="0 0 42 42" xmlns="http://www.w3.org/2000/svg" xmlns:xlink="http://www.w3.org/1999/xlink"><linearGradient id="a" gradientUnits="userSpaceOnUse" x1="0" x2="41.7134" y1="41.7504" y2="41.7504"><stop offset="0" stop-color="#f5c426"/><stop offset="1" stop-color="#f2b327"/></linearGradient><clipPath id="b"><path clip-rule="evenodd" d="m0 0h41.824v42h-41.824z"/></clipPath><g clip-path="url(#b)" fill-rule="nonzero"><path d="m0 0h158v42h-158z" fill="#fafafa"/><path d="m41.713 20.893c0 16.685-4.17 20.857-20.856 20.857-16.685 0-20.857-4.172-20.857-20.857s4.179-20.858 20.858-20.858c16.678 0 20.855 4.173 20.855 20.858z" fill="url(#a)"/><path d="m21.478 28.798c-.371.267-.87.267-1.241 0-2.639-1.862-12.536-9.419-6.85-14.313 2.018-1.625 4.942-1.439 6.738.428l.733.733.731-.733c1.796-1.867 4.72-2.053 6.737-.428 5.689 4.894-4.209 12.451-6.848 14.313z" fill="#fff"/></g></svg>